<svg xmlns="http://www.w3.org/2000/svg" viewBox="0 0 472.07 371.03" fill="#000"><g id="Livello_2" data-name="Livello 2"><g id="logo"><g id="ae"><polygon points="458.14 212.36 472.07 225.04 308.41 312.82 254.53 207.94 367.05 147.94 369.89 166.37 279.53 214.89 317.81 286.87 458.14 212.36"/><polygon points="302.78 218.85 319.83 209.59 333.07 234.74 425.22 185.55 441.62 197.99 324.76 260.42 302.78 218.85"/><polygon points="189.25 86.48 243.97 190.06 366.73 125.62 363.09 106.24 252.22 165.89 215.56 94.26 356.21 19.27 352.07 0 189.25 86.48"/><polygon points="262.22 144.71 281.41 134.99 266.87 109 359.36 60.02 357.37 40.29 241.86 102.05 262.22 144.71"/><polygon points="0 341.6 11.04 362.45 126.32 145.37 181.51 250.84 204.81 250.84 126.32 101.22 0 341.6"/><polygon points="29.43 371.03 53.47 371.03 74.81 329.33 223.79 329.33 241.32 362.45 252.64 341.6 236.7 310.94 86.22 310.94 138.59 210.37 126.32 187.07 29.43 371.03"/><polygon points="258.52 371.03 282.66 371.03 299.25 340.37 166.79 90.18 144.09 90.18 237.93 269.24 128.77 269.24 118.3 288.34 248.6 288.34 274.72 339.15 258.52 371.03"/></g></g></g></svg>